<svg width="20" height="20" viewBox="0 0 20 20" fill="none" xmlns="http://www.w3.org/2000/svg">
<path d="M6.14187 9.48191C4.27142 8.04979 4.30344 5.67618 5.45967 4.26727C6.80806 2.6263 9.14292 2.60641 10.5329 4.04847C11.8493 5.41429 12.0511 7.92381 10.0781 9.46202C10.4144 9.61782 10.7635 9.76369 11.0966 9.93607C11.702 10.2477 12.2336 10.672 12.6981 11.1825C13.0311 11.5472 13.3226 11.9483 13.55 12.3959C13.8447 12.9793 14.0817 13.586 14.1297 14.249C14.1682 14.7562 14.1778 15.2634 14.1842 15.7706C14.1874 16.0657 14.0272 16.2579 13.803 16.2778C13.4795 16.3077 13.2746 16.1187 13.2682 15.7773C13.2585 15.3861 13.2682 14.9916 13.2393 14.6004C13.1753 13.7319 12.8774 12.9528 12.3746 12.2566C11.9038 11.6036 11.308 11.0964 10.6066 10.7383C10.0845 10.4731 9.54647 10.251 8.95395 10.2079C8.62086 10.1847 8.29096 10.1516 7.95787 10.1449C7.3141 10.135 6.68955 10.2643 6.08742 10.5063C5.39881 10.7847 4.78387 11.1792 4.25861 11.7229C3.71733 12.2865 3.32338 12.9495 3.09918 13.712C2.90701 14.365 2.91982 15.038 2.92303 15.711C2.92303 15.8402 2.88139 15.9828 2.82054 16.0955C2.71805 16.2845 2.53228 16.3077 2.34331 16.2712C2.17036 16.2381 2.04545 16.1187 2.02944 15.9397C2.00381 15.6049 2.00381 15.2667 2.00061 14.9319C1.9878 14.1297 2.17677 13.3672 2.50666 12.6511C2.87178 11.8522 3.40665 11.1859 4.06964 10.6256C4.61412 10.1615 5.23226 9.83662 5.88244 9.56147C5.9561 9.525 6.03938 9.50843 6.14187 9.48191ZM5.58778 6.56131C5.55575 7.93376 6.65432 9.16697 8.09559 9.16034C9.48882 9.15371 10.6098 8.03321 10.6066 6.55468C10.6034 5.09273 9.52405 3.95897 8.09239 3.95234C6.67354 3.94902 5.55575 5.14577 5.58778 6.56131Z" fill="#5E6165" stroke="#5E6165" stroke-width="0.2"/>
<path d="M14.4759 9.48535C15.5104 9.89973 16.3239 10.5727 16.8972 11.5407C17.1855 12.028 17.3872 12.5618 17.4577 13.1253C17.5122 13.5662 17.5025 14.0171 17.4929 14.4646C17.4865 14.7597 17.2815 14.9254 17.0093 14.9188C16.7723 14.9088 16.5865 14.6934 16.5769 14.395C16.5705 14.1696 16.5801 13.9408 16.5737 13.7154C16.5321 12.575 16.0549 11.6667 15.1901 10.9705C14.7353 10.6025 14.2196 10.3539 13.6559 10.2312C13.4125 10.1782 13.1627 10.1782 12.9161 10.1384C12.7624 10.1119 12.599 10.0854 12.4645 10.0124C12.3012 9.92294 12.2275 9.67762 12.2915 9.50524C12.3588 9.32954 12.4773 9.19694 12.6759 9.17704C13.0634 9.13395 13.4446 9.08754 13.7745 8.83559C14.3702 8.38474 14.6616 7.77476 14.5752 7.01892C14.4855 6.25313 14.0691 5.70614 13.3613 5.43762C13.1371 5.35143 12.8841 5.35143 12.6471 5.3017C12.3972 5.24866 12.2595 5.03981 12.2851 4.78123C12.3076 4.54586 12.5061 4.36685 12.7495 4.37016C13.7392 4.38342 14.5111 4.83096 15.062 5.66968C15.536 6.39237 15.6193 7.18799 15.4111 8.02671C15.2574 8.62342 14.9147 9.07428 14.4759 9.48535Z" fill="#5E6165" stroke="#5E6165" stroke-width="0.2"/>
</svg>
