<svg width="100" height="100" viewBox="0 0 100 100" fill="none" xmlns="http://www.w3.org/2000/svg">
<path d="M47.06 0C49.0127 0 50.9654 0 52.9181 0C53.211 0.0488175 53.4795 0.122044 53.7724 0.170861C56.5062 0.585809 59.2644 0.829897 61.9493 1.46452C87.6029 7.61552 104.128 33.3911 99.0994 59.3376C97.0247 70.1263 91.9721 79.3284 83.8684 86.6998C72.2986 97.2444 58.6053 101.443 43.1058 99.4656C33.2203 98.2207 24.5308 94.1689 17.0617 87.5785C8.27456 79.8165 2.78259 70.1751 0.75667 58.5809C0.439357 56.7015 0.244087 54.7976 0 52.9181C0 50.9654 0 49.0127 0 47.06C0.0488175 46.7183 0.122044 46.3766 0.170861 46.0349C0.414948 44.2286 0.536992 42.398 0.878714 40.6161C2.78259 30.6574 7.29821 22.0655 14.4256 14.8649C21.919 7.32262 30.877 2.58732 41.3728 0.781079C43.2523 0.439357 45.1561 0.244087 47.06 0ZM51.7953 56.555C61.6808 55.2369 67.9539 47.0356 67.5389 38.2241C67.1484 29.4613 60.2163 22.2852 51.3804 21.5285C42.6909 20.7962 34.5872 26.8008 32.8053 35.3438C31.7557 40.372 32.7077 45.0585 35.6856 49.2568C38.6634 53.4307 42.8129 55.7983 47.8899 56.5794C46.9136 56.7747 45.9372 56.8723 44.9853 56.9944C44.0333 57.1408 43.057 57.2873 42.1051 57.507C30.4377 60.436 22.2363 67.4413 17.4278 78.4496C17.1349 79.1087 17.2082 79.5236 17.7207 80.0606C28.9976 91.5571 42.5688 96.0727 58.4101 93.2413C67.8318 91.5571 75.7403 86.9195 82.3062 79.9874C82.77 79.4992 82.8188 79.1087 82.5259 78.5473C81.9401 77.3757 81.4763 76.1552 80.8417 75.0324C75.545 65.6351 67.6854 59.7037 57.1164 57.4093C55.481 57.0432 53.7724 56.8723 51.7953 56.555Z" fill="#EDEDED"/>
</svg>
