<svg width="21" height="22" viewBox="0 0 21 22" fill="none" xmlns="http://www.w3.org/2000/svg">
<path d="M16.625 6.4165C16.3929 6.4165 16.1704 6.51308 16.0063 6.68499C15.8422 6.8569 15.75 7.09006 15.75 7.33317V17.5916C15.7249 18.0551 15.526 18.4895 15.1966 18.8001C14.8671 19.1107 14.4339 19.2723 13.9913 19.2498H7.00875C6.56608 19.2723 6.13286 19.1107 5.80344 18.8001C5.47402 18.4895 5.2751 18.0551 5.25 17.5916V7.33317C5.25 7.09006 5.15781 6.8569 4.99372 6.68499C4.82962 6.51308 4.60706 6.4165 4.375 6.4165C4.14294 6.4165 3.92038 6.51308 3.75628 6.68499C3.59219 6.8569 3.5 7.09006 3.5 7.33317V17.5916C3.52498 18.5415 3.90826 19.4423 4.56591 20.0967C5.22356 20.7511 6.10196 21.1058 7.00875 21.0832H13.9913C14.898 21.1058 15.7764 20.7511 16.4341 20.0967C17.0917 19.4423 17.475 18.5415 17.5 17.5916V7.33317C17.5 7.09006 17.4078 6.8569 17.2437 6.68499C17.0796 6.51308 16.8571 6.4165 16.625 6.4165Z" fill="#191D23" fill-opacity="0.7"/>
<path d="M17.5 3.6665H14V1.83317C14 1.59006 13.9078 1.3569 13.7437 1.18499C13.5796 1.01308 13.3571 0.916504 13.125 0.916504H7.875C7.64294 0.916504 7.42038 1.01308 7.25628 1.18499C7.09219 1.3569 7 1.59006 7 1.83317V3.6665H3.5C3.26794 3.6665 3.04538 3.76308 2.88128 3.93499C2.71719 4.1069 2.625 4.34006 2.625 4.58317C2.625 4.82629 2.71719 5.05944 2.88128 5.23135C3.04538 5.40326 3.26794 5.49984 3.5 5.49984H17.5C17.7321 5.49984 17.9546 5.40326 18.1187 5.23135C18.2828 5.05944 18.375 4.82629 18.375 4.58317C18.375 4.34006 18.2828 4.1069 18.1187 3.93499C17.9546 3.76308 17.7321 3.6665 17.5 3.6665ZM8.75 3.6665V2.74984H12.25V3.6665H8.75Z" fill="#191D23" fill-opacity="0.7"/>
<path d="M9.625 15.5833V9.16667C9.625 8.92355 9.53281 8.69039 9.36872 8.51849C9.20462 8.34658 8.98206 8.25 8.75 8.25C8.51794 8.25 8.29538 8.34658 8.13128 8.51849C7.96719 8.69039 7.875 8.92355 7.875 9.16667V15.5833C7.875 15.8264 7.96719 16.0596 8.13128 16.2315C8.29538 16.4034 8.51794 16.5 8.75 16.5C8.98206 16.5 9.20462 16.4034 9.36872 16.2315C9.53281 16.0596 9.625 15.8264 9.625 15.5833Z" fill="#191D23" fill-opacity="0.7"/>
<path d="M13.125 15.5833V9.16667C13.125 8.92355 13.0328 8.69039 12.8687 8.51849C12.7046 8.34658 12.4821 8.25 12.25 8.25C12.0179 8.25 11.7954 8.34658 11.6313 8.51849C11.4672 8.69039 11.375 8.92355 11.375 9.16667V15.5833C11.375 15.8264 11.4672 16.0596 11.6313 16.2315C11.7954 16.4034 12.0179 16.5 12.25 16.5C12.4821 16.5 12.7046 16.4034 12.8687 16.2315C13.0328 16.0596 13.125 15.8264 13.125 15.5833Z" fill="#191D23" fill-opacity="0.7"/>
</svg>
