<svg width="36" height="36" viewBox="0 0 36 36" fill="none" xmlns="http://www.w3.org/2000/svg">
<circle cx="18" cy="18" r="18" fill="#D7F3EF"/>
<path d="M7.00172 16.8066C7.11629 16.551 7.32024 16.4685 7.60266 16.4707C8.72664 16.4802 9.85004 16.4746 10.9734 16.4746C11.4352 16.4746 11.587 16.6223 11.5881 17.0727C11.5881 17.1551 11.5881 17.2387 11.5881 17.3537H11.8018C12.6531 17.351 13.505 17.3421 14.3562 17.3465C15.514 17.3532 16.6157 17.5634 17.6027 18.1908C17.6911 18.2342 17.7902 18.2534 17.8891 18.2461C19.4359 18.2494 20.9827 18.2461 22.5294 18.25C23.4678 18.2528 24.1764 18.7778 24.3798 19.6198C24.4228 19.798 24.425 19.9861 24.4491 20.1958C24.8312 20.079 25.219 19.9601 25.6029 19.8494C25.9649 19.7432 26.323 19.6143 26.6913 19.5452C27.193 19.4507 27.713 19.5519 28.1377 19.8266C28.5623 20.1014 28.8571 20.5273 28.9576 21.0113C28.9691 21.049 28.9833 21.086 29 21.1219V21.6198C28.9865 21.644 28.9756 21.6694 28.9673 21.6956C28.8201 22.4315 28.367 22.9095 27.6543 23.185C26.3407 23.6929 25.0352 24.219 23.7198 24.7225C20.2322 26.0576 16.7486 26.0449 13.2689 24.6843C12.7018 24.463 12.1604 24.1775 11.6076 23.9225C11.493 24.3833 11.4146 24.4414 10.8881 24.4414C9.79275 24.4414 8.69742 24.4364 7.60209 24.4453C7.31966 24.4481 7.11515 24.3651 7 24.1095L7.00172 16.8066ZM11.5984 18.2423C11.5939 18.3385 11.5887 18.3994 11.5887 18.4608C11.5887 19.7333 11.6128 21.0057 11.575 22.2782C11.5618 22.718 11.7021 22.9421 12.0974 23.1518C15.667 25.0588 19.3603 25.3587 23.1802 23.9706C24.6313 23.4434 26.0606 22.8591 27.4956 22.2915C27.6318 22.2314 27.7514 22.1414 27.8451 22.0287C27.9814 21.8638 28.0599 21.6613 28.0694 21.4504C28.0788 21.2396 28.0186 21.0313 27.8975 20.8556C27.7764 20.6799 27.6007 20.5459 27.3956 20.473C27.1905 20.4 26.9668 20.3919 26.7566 20.4497C25.8251 20.7164 24.8954 20.9914 23.9662 21.2663C23.8914 21.289 23.8225 21.3267 23.764 21.377C23.5063 21.6023 23.1747 21.7328 22.8273 21.7454C22.0558 21.7749 21.2836 21.7923 20.5106 21.7974C19.5442 21.8035 18.5772 21.7936 17.6107 21.7886C17.2619 21.7886 17.0528 21.5723 17.0986 21.2713C17.1341 21.0411 17.3168 20.9084 17.6142 20.9084C18.5164 20.9084 19.4187 20.9183 20.3204 20.9139C21.1224 20.9095 21.9245 20.9111 22.7236 20.8719C23.2392 20.8464 23.5909 20.3236 23.4741 19.8356C23.3687 19.393 23.0186 19.1346 22.518 19.1335C20.9433 19.1313 19.3683 19.1302 17.7929 19.1302C17.5344 19.136 17.2804 19.0637 17.0665 18.9233C16.6704 18.6601 16.2234 18.4767 15.7523 18.3839C14.3826 18.1128 12.9991 18.2727 11.5984 18.2411V18.2423ZM10.6486 23.5501V17.3692H7.93493V23.549L10.6486 23.5501Z" fill="#1AB6C4" stroke="#1AB6C4" stroke-width="0.3"/>
<path d="M21.1225 20.1677C18.498 20.1336 16.4038 17.8439 16.4289 15.0367C16.4536 12.207 18.6014 9.96236 21.2463 10.0005C23.8269 10.038 25.8917 12.3624 25.8568 15.1921C25.8236 17.934 23.6651 20.2023 21.1225 20.1677ZM17.2923 15.0604C17.2923 17.3703 19.0004 19.2339 21.1247 19.2339C21.6341 19.2373 22.1391 19.1318 22.6105 18.9234C23.0818 18.715 23.5101 18.4078 23.8706 18.0197C24.2311 17.6316 24.5167 17.1703 24.7107 16.6624C24.9047 16.1546 25.0034 15.6102 25.0009 15.061C25.0009 12.7834 23.2521 10.9193 21.1225 10.9227C19.0208 10.9279 17.294 12.7926 17.2923 15.0621V15.0604Z" fill="#1AB6C4" stroke="#1AB6C4" stroke-width="0.3"/>
<path d="M9.61658 21.8888C9.54686 21.8915 9.47758 21.8688 9.413 21.8221C9.34843 21.7754 9.28993 21.7058 9.24112 21.6175C9.1923 21.5292 9.15421 21.4241 9.1292 21.3087C9.10418 21.1933 9.09276 21.07 9.09565 20.9465C9.09704 20.7039 9.15269 20.4722 9.25036 20.3023C9.34804 20.1324 9.47975 20.0381 9.61658 20.0403C9.6864 20.0403 9.75553 20.0649 9.81994 20.1128C9.88434 20.1606 9.94273 20.2307 9.9917 20.3189C10.0407 20.4072 10.0793 20.5118 10.1052 20.6268C10.1311 20.7417 10.1439 20.8647 10.1428 20.9885C10.1395 21.2311 10.0824 21.4617 9.98392 21.6302C9.88543 21.7987 9.75344 21.8916 9.61658 21.8888Z" fill="#1AB6C4" stroke="#1AB6C4" stroke-width="0.3"/>
<path d="M21.5589 16.3019C21.5589 16.4289 21.5628 16.5403 21.5589 16.6512C21.5581 16.7445 21.5249 16.8336 21.4666 16.899C21.4084 16.9644 21.3298 17.0007 21.2482 17C21.1665 16.9987 21.0885 16.961 21.0308 16.8949C20.9731 16.8288 20.9403 16.7396 20.9394 16.6463C20.9343 16.5354 20.9394 16.4227 20.9394 16.2885C20.7664 16.2885 20.6025 16.2885 20.4385 16.2885C20.3655 16.2903 20.2927 16.2824 20.2213 16.2648C20.158 16.2434 20.1024 16.1992 20.0629 16.1388C20.0233 16.0783 20.0019 16.0049 20.0019 15.9294C20.0019 15.854 20.0233 15.7805 20.0629 15.7201C20.1024 15.6596 20.158 15.6154 20.2213 15.594C20.2878 15.5765 20.3559 15.5685 20.424 15.5703C20.7711 15.5681 21.1182 15.5703 21.465 15.5703C21.7315 15.5703 21.8755 15.446 21.877 15.218C21.8786 14.9899 21.7295 14.8602 21.4704 14.8575C21.3041 14.8575 21.1382 14.8575 20.9719 14.8575C20.442 14.8535 20.0276 14.4224 20.0014 13.8491C19.9748 13.2642 20.3317 12.7911 20.8584 12.7137L20.9394 12.7025C20.9394 12.5849 20.9363 12.4745 20.9394 12.3636C20.9468 12.1462 21.074 12 21.2525 12C21.4309 12 21.5542 12.1418 21.5616 12.3645C21.5655 12.4745 21.5616 12.5849 21.5616 12.7115C21.7831 12.7115 21.9874 12.707 22.1913 12.7115C22.2654 12.7105 22.3372 12.7405 22.3934 12.7957C22.4496 12.851 22.4862 12.9277 22.4965 13.0115C22.5169 13.1846 22.4386 13.3483 22.3008 13.3984C22.2394 13.4165 22.176 13.4242 22.1126 13.4212C21.7362 13.4234 21.3601 13.4189 20.9836 13.4234C20.7273 13.4265 20.5747 13.6425 20.6436 13.8907C20.6866 14.0472 20.8001 14.138 20.9715 14.142C21.1621 14.1469 21.3527 14.142 21.5432 14.1443C22.059 14.1528 22.4644 14.5655 22.4973 15.1124C22.5333 15.7157 22.2081 16.1776 21.6755 16.2773C21.6411 16.2814 21.6082 16.2903 21.5589 16.3019Z" fill="#1AB6C4" stroke="#1AB6C4" stroke-width="0.3"/>
</svg>
