<svg width="36" height="36" viewBox="0 0 36 36" fill="none" xmlns="http://www.w3.org/2000/svg">
<circle cx="18" cy="18" r="18" fill="#FDE7E2"/>
<g clip-path="url(#clip0_402_4665)">
<path d="M9 26.29V15.7079C9.01249 15.6858 9.02257 15.6619 9.03 15.6368C9.2175 14.6287 9.86766 14.005 10.7344 14.0006C11.1506 14.0006 11.5664 14.0006 11.9827 14.0006H12.3961C12.7242 10.5971 15.0052 8.19165 17.6841 8.01225C18.9717 7.92561 20.1586 8.31717 21.2142 9.20081C22.6111 10.3705 23.3892 11.9873 23.6048 14.0017C24.1959 14.0017 24.7767 13.9934 25.3547 14.0017C25.7058 14.0111 26.0456 14.1503 26.3266 14.3997C26.6076 14.6492 26.8159 14.9964 26.9222 15.393C26.9498 15.4968 26.9747 15.6018 27.0009 15.7062V26.29C26.9934 26.2999 26.9813 26.3088 26.9789 26.3199C26.7253 27.4668 26.1445 27.9978 25.1433 27.9978H12.1927C11.6831 27.9978 11.1731 28.0039 10.6636 27.9978C10.3126 27.9919 9.97191 27.8565 9.68894 27.6104C9.40596 27.3644 9.19479 27.0198 9.08484 26.6249C9.05391 26.5127 9.02813 26.401 9 26.29ZM23.3667 16.7815C23.4202 16.812 23.4839 16.8459 23.5458 16.8831C23.8793 17.0865 24.1461 17.4158 24.3041 17.8189C24.4621 18.222 24.5022 18.676 24.4181 19.1091C24.3341 19.5423 24.1306 19.9299 23.8398 20.2107C23.5491 20.4915 23.1877 20.6496 22.8127 20.6599C19.6083 20.6665 16.4036 20.6665 13.1986 20.6599C12.8147 20.6539 12.4441 20.493 12.1477 20.2038C11.8514 19.9146 11.6472 19.5144 11.5688 19.0691C11.4903 18.6238 11.5424 18.1602 11.7163 17.7547C11.8902 17.3492 12.1757 17.0261 12.5255 16.8387C12.5667 16.8165 12.6075 16.792 12.6338 16.777C12.548 16.2894 12.4645 15.8173 12.3792 15.333H10.8052C10.327 15.333 10.125 15.5746 10.125 16.1461V25.8517C10.125 26.4194 10.3308 26.6648 10.8066 26.6648H25.2009C25.6697 26.6648 25.875 26.4194 25.875 25.864V17.8895C25.875 17.2786 25.875 16.6676 25.875 16.0567C25.875 15.6124 25.6434 15.3408 25.2745 15.3347C25.1278 15.3347 24.9816 15.3347 24.8348 15.3347H23.6198C23.5345 15.8217 23.453 16.2883 23.3667 16.7815ZM18 19.3336C18.6792 19.3336 19.3594 19.3336 20.0381 19.3308C20.1186 19.3305 20.1978 19.3069 20.2688 19.2619C21.8348 18.21 22.7344 15.9961 22.4536 13.8956C22.0528 10.8965 19.7578 8.92644 17.2388 9.41464C15.4106 9.76899 13.9144 11.5063 13.5769 13.6712C13.2305 15.8928 14.0897 18.1406 15.7158 19.2525C15.7911 19.3022 15.8757 19.3289 15.9619 19.3302C16.6406 19.3336 17.3213 19.3336 18 19.3336ZM22.0528 19.3336H22.6875C22.74 19.3357 22.7926 19.3342 22.845 19.3291C22.9823 19.3092 23.1088 19.2304 23.2005 19.1076C23.2922 18.9849 23.3428 18.8266 23.3428 18.6626C23.3405 18.3222 23.1384 18.0556 22.8825 18.0267L22.0528 19.3336ZM13.9406 19.3336L13.1133 18.0173C12.8198 18.0906 12.6337 18.371 12.6581 18.7215C12.6707 18.8894 12.7362 19.0455 12.8416 19.1587C12.947 19.2719 13.0845 19.3339 13.2267 19.3324C13.4606 19.3363 13.6945 19.3336 13.9406 19.3336Z" fill="#FD552E"/>
<path d="M22.4999 24.6547C22.5017 24.7867 22.4703 24.9164 22.4098 25.0273C22.3492 25.1382 22.2623 25.2252 22.1599 25.2774C22.0575 25.3296 21.9444 25.3446 21.8348 25.3205C21.7252 25.2964 21.6242 25.2343 21.5444 25.142C21.4647 25.0497 21.4099 24.9315 21.387 24.8022C21.3641 24.673 21.3741 24.5386 21.4158 24.4162C21.4574 24.2937 21.5288 24.1886 21.621 24.1143C21.7131 24.04 21.8218 23.9998 21.9332 23.9988C22.0813 23.9984 22.2237 24.067 22.3296 24.1896C22.4356 24.3122 22.4967 24.4792 22.4999 24.6547Z" fill="#FD552E"/>
<path d="M24.1942 23.9988C24.3057 24.0004 24.4142 24.0412 24.5061 24.116C24.598 24.1908 24.669 24.2963 24.7102 24.419C24.7514 24.5418 24.7609 24.6763 24.7374 24.8054C24.714 24.9345 24.6587 25.0525 24.5785 25.1443C24.4984 25.2362 24.397 25.2977 24.2873 25.3211C24.1776 25.3446 24.0645 25.3289 23.9623 25.276C23.8602 25.2231 23.7736 25.1354 23.7135 25.0241C23.6535 24.9128 23.6227 24.7829 23.6251 24.6508C23.6292 24.4756 23.691 24.3091 23.7974 24.1873C23.9038 24.0654 24.0462 23.9977 24.1942 23.9988Z" fill="#FD552E"/>
<path d="M18.5743 17.9722C18.5148 18.4038 18.3226 18.6448 18.0334 18.6642C17.7319 18.6848 17.528 18.4682 17.4151 17.9978H16.6651C16.2901 17.9978 16.0351 17.7278 16.0327 17.3357C16.0304 16.9436 16.284 16.6676 16.6557 16.6676C17.1596 16.6676 17.663 16.6676 18.1669 16.6676C18.586 16.6676 18.8462 16.4082 18.8429 15.995C18.8396 15.5818 18.5818 15.3446 18.1749 15.3313C17.8721 15.3213 17.5595 15.3313 17.2698 15.2452C16.531 15.023 16.0337 14.2138 16.0388 13.3196C16.0429 12.886 16.1656 12.4656 16.3884 12.1216C16.6113 11.7775 16.9224 11.5285 17.2749 11.4118L17.4216 11.3613C17.4962 10.9058 17.6898 10.6731 17.993 10.6692C18.2963 10.6654 18.4923 10.8914 18.5762 11.3357C18.8241 11.3357 19.0754 11.3357 19.3262 11.3357C19.7124 11.3357 19.9702 11.6068 19.9674 12.0072C19.9646 12.4076 19.7087 12.6687 19.3177 12.6687C18.8143 12.6687 18.3104 12.6687 17.8065 12.6687C17.4146 12.6687 17.1596 12.9292 17.1568 13.3296C17.154 13.7301 17.4137 13.9961 17.8159 14.0028C18.0554 14.0061 18.2991 13.9916 18.534 14.0355C19.3454 14.1871 19.9121 14.9503 19.958 15.9211C20.0016 16.8353 19.4771 17.6728 18.7004 17.9322L18.5743 17.9722Z" fill="#FD552E"/>
</g>
<defs>
<clipPath id="clip0_402_4665">
<rect width="18" height="20" fill="white" transform="translate(9 8)"/>
</clipPath>
</defs>
</svg>
