<?xml version="1.0" encoding="utf-8"?>
<!-- Generator: Adobe Illustrator 27.0.0, SVG Export Plug-In . SVG Version: 6.00 Build 0)  -->
<svg version="1.1" id="Layer_1" xmlns="http://www.w3.org/2000/svg" xmlns:xlink="http://www.w3.org/1999/xlink" x="0px" y="0px"
	 viewBox="0 0 20 20" style="enable-background:new 0 0 20 20;" xml:space="preserve">
<style type="text/css">
	.st0{fill:#B3B3B3;stroke:#B3B3B3;stroke-width:0.9;}
	.st1{fill:#B3B3B3;stroke:#B3B3B3;stroke-width:0.3;}
</style>
<path class="st0" d="M9,19.5c-0.2-0.1-0.3-0.3-0.3-0.5c0-0.9,0-1.9,0-2.8V16c-0.5-0.1-0.9-0.1-1.3-0.2c-1.5-0.3-2.9-1-4.1-2
	C1.5,12.2,0.6,10.3,0.7,8c0.1-1.5,0.7-2.8,1.6-3.9c1.4-1.6,3.2-2.6,5.2-3c3.1-0.7,6-0.2,8.6,1.7c1.5,1,2.5,2.4,3,4.2
	c0.5,1.9,0.1,3.7-1.1,5.3c-0.8,1.1-1.8,1.9-2.8,2.7c-1.9,1.5-3.9,2.9-5.8,4.4c-0.1,0.1-0.2,0.1-0.3,0.2H9L9,19.5z M9.5,18.3
	c0.1,0,0.1-0.1,0.1-0.1c1.8-1.4,3.7-2.8,5.5-4.2c0.8-0.6,1.6-1.3,2.3-2.2c1.4-1.7,1.6-3.6,0.8-5.7c-0.6-1.5-1.7-2.5-3-3.3
	c-2.5-1.4-5.1-1.7-7.8-1C5.5,2.4,3.9,3.3,2.8,4.8c-1.5,2-1.7,4.1-0.7,6.3c0.7,1.5,1.9,2.4,3.4,3.1c1.1,0.5,2.3,0.8,3.6,0.9
	c0.3,0,0.4,0.2,0.4,0.4c0,0.4,0,0.8,0,1.1C9.5,17.3,9.5,17.8,9.5,18.3L9.5,18.3z"/>
<path class="st1" d="M9.8,8.1c0,0.6,0,1.1,0,1.7c0,0.1,0,0.2,0,0.3c-0.1,0.2-0.2,0.3-0.4,0.3c-0.2,0-0.3-0.1-0.4-0.3
	c0-0.1,0-0.1,0-0.2c0-1,0-2,0-3c0,0,0,0,0,0c0-0.2,0.1-0.4,0.3-0.4c0.2-0.1,0.3,0,0.5,0.2c0.3,0.4,0.7,0.9,1,1.3
	C11,8,11.1,8.3,11.3,8.5c0,0.1,0.1,0.1,0.1,0.2c0,0,0,0,0,0c0-0.1,0-0.2,0-0.3c0-0.5,0-1,0-1.5c0-0.1,0-0.2,0-0.3
	c0.1-0.2,0.2-0.3,0.4-0.3c0.2,0,0.3,0.1,0.4,0.3c0,0.1,0,0.2,0,0.3c0,0.9,0,1.9,0,2.8c0,0.1,0,0.2,0,0.3c0,0.2-0.1,0.3-0.3,0.3
	c-0.1,0-0.3,0-0.4-0.1c-0.1-0.1-0.1-0.1-0.2-0.2c-0.5-0.6-0.9-1.2-1.4-1.8C10,8.2,9.9,8.1,9.8,8.1C9.9,8,9.9,8,9.8,8.1L9.8,8.1z"/>
<path class="st1" d="M13.8,8.7v0.8c0.3,0,0.5,0,0.8,0c0.2,0,0.3,0,0.5,0c0.2,0,0.4,0.2,0.4,0.4c0,0.2-0.1,0.4-0.4,0.4
	c-0.6,0-1.2,0-1.7,0c-0.2,0-0.4-0.2-0.4-0.4c0,0,0-0.1,0-0.1c0-1,0-1.9,0-2.9c0-0.4,0.1-0.5,0.5-0.5c0.5,0,1,0,1.5,0
	c0.3,0,0.4,0.1,0.4,0.4c0,0.2-0.1,0.4-0.4,0.4c-0.4,0-0.7,0-1.1,0c-0.2,0-0.2,0.1-0.2,0.2c0,0.5,0,0.6,0.5,0.6c0.2,0,0.5,0,0.7,0
	c0.3,0,0.4,0.1,0.4,0.3c0.1,0.3-0.1,0.5-0.4,0.5c-0.3,0-0.6,0-1,0C14,8.7,13.9,8.7,13.8,8.7L13.8,8.7z"/>
<path class="st1" d="M5.4,9.5c0.4,0,0.7,0,1,0c0.1,0,0.2,0,0.3,0c0.2,0,0.3,0.2,0.3,0.4c0,0.2-0.2,0.4-0.4,0.4c-0.6,0-1.2,0-1.8,0
	c-0.2,0-0.3-0.1-0.3-0.3c0-0.1,0-0.2,0-0.3c0-0.9,0-1.8,0-2.8c0-0.1,0-0.2,0-0.3c0-0.2,0.2-0.3,0.4-0.3c0.2,0,0.3,0.1,0.4,0.3
	c0,0.1,0,0.2,0,0.3c0,0.8,0,1.6,0,2.3C5.4,9.3,5.4,9.4,5.4,9.5L5.4,9.5z"/>
<path class="st1" d="M7.6,8.3c0-0.5,0-1,0-1.6c0-0.3,0.1-0.4,0.5-0.4c0.2,0,0.3,0.1,0.3,0.3c0,0.1,0,0.1,0,0.2c0,1,0,1.9,0,2.9
	c0,0,0,0.1,0,0.1c0,0.4-0.3,0.5-0.6,0.4C7.6,10.2,7.6,10,7.6,9.9C7.5,9.4,7.6,8.8,7.6,8.3L7.6,8.3z"/>
</svg>
