<svg width="42" height="32" viewBox="0 0 42 32" fill="none" xmlns="http://www.w3.org/2000/svg">
<rect x="0.5" y="0.5" width="41" height="31" rx="3.5" fill="white"/>
<rect x="0.5" y="0.5" width="41" height="31" rx="5.5" fill="white"/>
<path fill-rule="evenodd" clip-rule="evenodd" d="M20.9134 22.4392C19.4719 23.7699 17.6021 24.5732 15.559 24.5732C11 24.5732 7.3042 20.5736 7.3042 15.6399C7.3042 10.7061 11 6.70654 15.559 6.70654C17.6021 6.70654 19.4719 7.50987 20.9134 8.8406C22.3548 7.50987 24.2246 6.70654 26.2678 6.70654C30.8268 6.70654 34.5226 10.7061 34.5226 15.6399C34.5226 20.5736 30.8268 24.5732 26.2678 24.5732C24.2246 24.5732 22.3548 23.7699 20.9134 22.4392Z" fill="#ED0006"/>
<path fill-rule="evenodd" clip-rule="evenodd" d="M20.9136 22.4392C22.6885 20.8006 23.8139 18.3625 23.8139 15.6399C23.8139 12.9173 22.6885 10.4791 20.9136 8.8406C22.355 7.50987 24.2248 6.70654 26.268 6.70654C30.827 6.70654 34.5228 10.7061 34.5228 15.6399C34.5228 20.5736 30.827 24.5732 26.268 24.5732C24.2248 24.5732 22.355 23.7699 20.9136 22.4392Z" fill="#F9A000"/>
<path fill-rule="evenodd" clip-rule="evenodd" d="M20.9135 22.4393C22.6883 20.8008 23.8138 18.3627 23.8138 15.6401C23.8138 12.9175 22.6883 10.4794 20.9135 8.84082C19.1386 10.4794 18.0132 12.9175 18.0132 15.6401C18.0132 18.3627 19.1386 20.8008 20.9135 22.4393Z" fill="#FF5E00"/>
<rect x="0.5" y="0.5" width="41" height="31" rx="5.5" stroke="#F2F4F7"/>
<rect x="0.5" y="0.5" width="41" height="31" rx="3.5" stroke="#F2F4F7"/>
</svg>
