<svg width="14" height="14" viewBox="0 0 14 14" fill="none" xmlns="http://www.w3.org/2000/svg">
<g clip-path="url(#clip0_661_947)">
<path d="M10.5 14H3.5C3.5 14 3.46555 13.9862 3.45177 13.9793C2.81102 13.8346 2.43898 13.373 2.43209 12.7116C2.43209 12.1604 2.43209 11.6092 2.43209 11.058C2.43209 11.0098 2.43209 10.9616 2.43209 10.9065C2.2874 10.9065 2.16339 10.9065 2.04626 10.9065C1.11614 10.8996 0.310039 10.2795 0.0688976 9.37694C0.0413386 9.28738 0.0206693 9.19092 0 9.10135C0 7.84741 0 6.58659 0 5.33265C0.00688976 5.31887 0.0206693 5.30509 0.0206693 5.28442C0.213583 4.21651 1.02657 3.52753 2.11516 3.52753C2.2185 3.52753 2.32185 3.52753 2.43209 3.52753C2.43209 3.45863 2.43209 3.41041 2.43209 3.36218C2.43209 2.90056 2.43209 2.43895 2.43209 1.98423C2.45276 0.936981 3.34154 0.0206424 4.38878 0.0137526C6.125 -2.69136e-05 7.86122 -2.69136e-05 9.59744 0.0137526C10.5551 0.0206424 11.4301 0.799186 11.5266 1.75686C11.5817 2.28737 11.5541 2.83167 11.561 3.36907C11.561 3.42419 11.561 3.47241 11.561 3.54131C11.7195 3.54131 11.8573 3.54131 11.9951 3.54131C13.063 3.56198 13.9793 4.45076 13.9862 5.52556C14 6.66238 14 7.80608 13.9862 8.94289C13.9793 9.92123 13.2008 10.7756 12.2362 10.8996C12.0157 10.9271 11.7953 10.9271 11.561 10.9409C11.561 10.9891 11.561 11.0374 11.561 11.0856C11.561 11.6575 11.561 12.2362 11.561 12.808C11.561 13.3248 11.2303 13.7726 10.7411 13.9449C10.6585 13.9724 10.5758 13.9931 10.4931 14.0206L10.5 14ZM11.5748 10.0935C11.6919 10.0935 11.8022 10.0935 11.9124 10.0935C12.6496 10.0935 13.1801 9.56297 13.1801 8.82576C13.1801 7.75785 13.1801 6.68304 13.1801 5.61513C13.1801 4.88482 12.6496 4.3543 11.9193 4.3543C8.63976 4.3543 5.36024 4.3543 2.08071 4.3543C1.35728 4.3543 0.826772 4.89171 0.819882 5.61513C0.819882 6.68304 0.819882 7.75785 0.819882 8.82576C0.819882 9.56986 1.42618 10.2451 2.4252 10.0728V8.72241C2.33563 8.72241 2.24606 8.72241 2.16339 8.72241C1.96358 8.70864 1.80512 8.55706 1.77756 8.35726C1.75689 8.16434 1.87402 7.97832 2.07382 7.9232C2.13583 7.90253 2.21161 7.90253 2.27362 7.90253C5.42224 7.90253 8.57087 7.90253 11.7126 7.90253C11.747 7.90253 11.7746 7.90253 11.8091 7.90253C12.0433 7.91631 12.2156 8.09545 12.2156 8.31592C12.2156 8.53639 12.0433 8.70864 11.8159 8.72241C11.7333 8.72241 11.6575 8.72241 11.5679 8.72241V10.0866L11.5748 10.0935ZM3.25886 8.73619C3.25886 8.79131 3.25886 8.83265 3.25886 8.88088C3.25886 10.1486 3.25886 11.4232 3.25886 12.6909C3.25886 13.0285 3.41043 13.187 3.74803 13.187C5.91831 13.187 8.08169 13.187 10.252 13.187C10.5965 13.187 10.748 13.0354 10.748 12.6909C10.748 11.4232 10.748 10.1624 10.748 8.89466V8.74308H3.25197L3.25886 8.73619ZM3.27953 3.52753H10.7411C10.7411 2.99702 10.7618 2.48029 10.7411 1.96356C10.7136 1.33659 10.1762 0.840524 9.54921 0.833635C7.85433 0.833635 6.15256 0.833635 4.45768 0.833635C3.87894 0.833635 3.34843 1.26769 3.29331 1.84643C3.24508 2.39761 3.27953 2.96257 3.27953 3.52753Z" fill="#191D23" fill-opacity="0.7" stroke="#191D23" stroke-opacity="0.7" stroke-width="0.3"/>
<path d="M2.83861 6.09723C2.63192 6.09723 2.41834 6.09723 2.21164 6.09723C1.95672 6.09723 1.77759 5.92498 1.77759 5.69073C1.77759 5.45648 1.95672 5.27734 2.21164 5.27734C2.63192 5.27734 3.05908 5.27734 3.47936 5.27734C3.72739 5.27734 3.91341 5.45648 3.90653 5.69073C3.90653 5.91809 3.72739 6.09034 3.47936 6.09723C3.26578 6.09723 3.05219 6.09723 2.83861 6.09723Z" fill="#191D23" fill-opacity="0.7" stroke="#191D23" stroke-opacity="0.7" stroke-width="0.3"/>
<path d="M6.99307 10.4722C6.64858 10.4722 6.30409 10.4722 5.95271 10.4722C5.67712 10.4722 5.4911 10.3 5.49799 10.0588C5.49799 9.8177 5.68401 9.65234 5.95271 9.65234C6.65547 9.65234 7.35133 9.65234 8.05409 9.65234C8.32279 9.65234 8.50193 9.8177 8.50193 10.0588C8.50193 10.3 8.3159 10.4722 8.05409 10.4722C7.70271 10.4722 7.34444 10.4722 6.99307 10.4722Z" fill="#191D23" fill-opacity="0.7" stroke="#191D23" stroke-opacity="0.7" stroke-width="0.3"/>
<path d="M7.00002 12.2222C6.64864 12.2222 6.29726 12.2222 5.95277 12.2222C5.68407 12.2222 5.50494 12.0569 5.49805 11.8157C5.49805 11.5746 5.68407 11.4023 5.95277 11.4023C6.64864 11.4023 7.3445 11.4023 8.04037 11.4023C8.31596 11.4023 8.50198 11.5677 8.50198 11.8157C8.50198 12.0569 8.31596 12.2222 8.04037 12.2222C7.69588 12.2222 7.35139 12.2222 7.00002 12.2222Z" fill="#191D23" fill-opacity="0.7" stroke="#191D23" stroke-opacity="0.7" stroke-width="0.3"/>
</g>
<defs>
<clipPath id="clip0_661_947">
<rect width="14" height="14" fill="white"/>
</clipPath>
</defs>
</svg>
