<svg width="36" height="36" viewBox="0 0 36 36" fill="none" xmlns="http://www.w3.org/2000/svg">
<circle cx="18" cy="18" r="18" fill="#F1F2FF"/>
<g clip-path="url(#clip0_402_4664)">
<path d="M8 19.5493C8.05666 19.2857 8.08218 19.0088 8.17763 18.7617C8.30257 18.4417 8.4564 18.1349 8.63703 17.8454C9.53132 16.4142 10.4317 14.9921 11.3301 13.5668C11.9937 12.5161 12.9074 11.8501 14.1033 11.6879C14.7061 11.6057 15.3243 11.6457 15.9358 11.6345C16.0527 11.6279 16.17 11.6309 16.2865 11.6436C16.5417 11.6793 16.6974 11.8661 16.6882 12.1084C16.679 12.3506 16.5136 12.5294 16.2533 12.5353C15.8562 12.5475 15.459 12.5443 15.0619 12.5406C14.4923 12.5342 13.9333 12.5732 13.403 12.8282C12.8779 13.0766 12.4311 13.4757 12.1146 13.9793C11.1346 15.5272 10.1586 17.0781 9.18677 18.632C9.14134 18.7046 9.10714 18.7846 9.05201 18.8908C9.14542 18.8956 9.2128 18.901 9.28018 18.902C9.96927 18.9132 10.6619 18.8828 11.3475 18.9437C12.3173 19.029 13.1253 19.9335 13.2003 20.9522C13.23 21.3493 13.259 21.7388 13.5306 22.0569C13.7715 22.3386 14.064 22.5057 14.4269 22.5313C14.4984 22.5366 14.5699 22.5393 14.6413 22.5393C16.8806 22.5393 19.1199 22.5361 21.3592 22.5393C21.9396 22.5393 22.3918 22.3157 22.6424 21.7596C22.7358 21.5521 22.7655 21.3039 22.7854 21.0707C22.8941 19.7857 23.7868 18.9116 25.0221 18.9015C25.5882 18.8967 26.1548 18.9015 26.7208 18.9015H26.9689C26.9384 18.8141 26.9017 18.7292 26.8592 18.6475C26.3743 17.8737 25.8876 17.1016 25.3993 16.331C24.8348 15.4409 24.261 14.5572 23.7021 13.6628C23.2279 12.9051 22.5643 12.5347 21.7022 12.5385C21.0774 12.5417 20.4525 12.5417 19.8274 12.5385C19.5211 12.5385 19.3522 12.4024 19.3195 12.1484C19.2853 11.8842 19.4364 11.6468 19.7095 11.6452C20.5869 11.6414 21.47 11.6105 22.3403 11.6985C23.2106 11.7866 23.8828 12.3181 24.3698 13.0774C25.406 14.6926 26.4381 16.3112 27.4661 17.9335C27.8246 18.4983 28.0107 19.1635 28 19.8412C27.9974 21.774 28 23.7069 28 25.6397C28 27.0074 27.0562 27.9962 25.7474 27.9967C20.5787 27.9967 15.4102 27.9967 10.2418 27.9967C9.10765 27.9967 8.25726 27.2576 8.0342 26.0943C8.02534 26.062 8.01425 26.0305 8.00102 25.9999L8 19.5493ZM8.87387 19.8161C8.86979 19.8941 8.86621 19.9341 8.86621 19.9762C8.86621 21.8678 8.86621 23.7597 8.86621 25.6519C8.86527 25.7947 8.88244 25.937 8.91726 26.0751C9.08672 26.7251 9.58542 27.089 10.3005 27.089C15.4305 27.089 20.5604 27.089 25.6903 27.089C25.8462 27.0925 26.0018 27.0746 26.1532 27.0357C26.7693 26.8596 27.1272 26.3419 27.1282 25.6338C27.1312 23.7554 27.1312 21.877 27.1282 19.9986C27.1282 19.9453 27.12 19.8919 27.1154 19.8386C27.0739 19.8309 27.0319 19.8258 26.9898 19.8231C26.3263 19.8231 25.6627 19.8204 24.9991 19.8231C24.8758 19.8243 24.7529 19.8395 24.6326 19.8684C24.1273 19.9885 23.6817 20.4971 23.6444 21.2025C23.5719 22.5606 22.6879 23.4496 21.4143 23.456C19.1357 23.4667 16.8571 23.4593 14.579 23.4587C13.9665 23.4587 13.4306 23.2485 12.9906 22.7965C12.5312 22.3258 12.3586 21.7388 12.3306 21.0814C12.3159 20.7582 12.187 20.4523 11.9687 20.2229C11.7504 19.9935 11.4584 19.8571 11.1494 19.8402C10.6037 19.8124 10.0566 19.8263 9.50988 19.8231C9.3057 19.8161 9.09846 19.8172 8.87387 19.8172V19.8161Z" fill="#6E64ED" stroke="#6E64ED" stroke-width="0.5"/>
<path d="M18.4323 18.2703C18.7513 17.9346 19.0295 17.6417 19.3082 17.3498C19.5869 17.0579 19.8334 17.0168 20.0366 17.2206C20.2397 17.4245 20.2045 17.7009 19.9197 17.9971C19.3956 18.5467 18.8716 19.0962 18.3475 19.6455C18.1296 19.8733 17.8764 19.8803 17.662 19.6572C17.1087 19.0809 16.5574 18.5024 16.0082 17.9218C15.7872 17.6881 15.7739 17.4063 15.9633 17.219C16.144 17.0403 16.3982 17.0531 16.608 17.2655C16.8744 17.5355 17.1337 17.8135 17.3966 18.0872C17.4405 18.1331 17.4879 18.1764 17.5671 18.2527V8.62595C17.5671 8.21719 17.7176 8.00053 17.9994 8C18.2812 7.99947 18.4317 8.21719 18.4317 8.62542C18.4317 11.7358 18.4317 14.8461 18.4317 17.9565L18.4323 18.2703Z" fill="#6E64ED" stroke="#6E64ED" stroke-width="0.5"/>
</g>
<defs>
<clipPath id="clip0_402_4664">
<rect width="20" height="20" fill="white" transform="translate(8 8)"/>
</clipPath>
</defs>
</svg>
