<svg width="11" height="15" viewBox="0 0 11 15" fill="none" xmlns="http://www.w3.org/2000/svg">
<g clip-path="url(#clip0_661_938)">
<path d="M4.22231 4.36493V5.19843C4.15651 5.19843 4.10168 5.19843 4.05781 5.19843C3.18044 5.19843 2.2921 5.19843 1.41474 5.19843C1.34893 5.19843 1.27216 5.19843 1.20636 5.19843C1.00895 5.22037 0.877349 5.35197 0.855414 5.56035C0.855414 5.61518 0.855414 5.65905 0.855414 5.71389C0.855414 8.18148 0.855414 10.66 0.855414 13.1276C0.855414 13.2044 0.855414 13.2702 0.877349 13.347C0.91025 13.5005 1.00895 13.5992 1.17346 13.6321C1.25023 13.6431 1.31603 13.6541 1.3928 13.6541C4.13458 13.6541 6.87635 13.6541 9.61813 13.6541C9.68393 13.6541 9.74973 13.6541 9.80457 13.6431C10.002 13.6102 10.1226 13.4896 10.1445 13.2812C10.1445 13.2373 10.1445 13.1934 10.1445 13.1386C10.1445 10.66 10.1445 8.17052 10.1445 5.69195C10.1445 5.62615 10.1445 5.54938 10.1226 5.48358C10.0787 5.31907 9.96907 5.2094 9.7936 5.18746C9.71683 5.18746 9.65103 5.1765 9.57426 5.1765C8.69689 5.1765 7.80856 5.1765 6.93119 5.1765H6.76668V4.343C6.76668 4.343 6.83248 4.33203 6.86539 4.33203C7.81952 4.33203 8.76269 4.33203 9.71683 4.33203C10.342 4.33203 10.8135 4.70491 10.9451 5.3081C10.9671 5.42874 10.978 5.54938 10.978 5.68098C10.978 8.17052 10.978 10.6491 10.978 13.1386C10.978 13.8295 10.5942 14.3231 9.96907 14.4547C9.87037 14.4766 9.77167 14.4766 9.67296 14.4766C6.88732 14.4766 4.09071 14.4766 1.30507 14.4766C0.515434 14.4766 -0.0109863 13.9502 -0.0109863 13.1605C-0.0109863 10.66 -0.0109863 8.14858 -0.0109863 5.64808C-0.0109863 4.85845 0.504467 4.343 1.28313 4.33203C2.2263 4.33203 3.15851 4.33203 4.10168 4.33203C4.13458 4.33203 4.16748 4.33203 4.20038 4.33203L4.22231 4.36493Z" fill="#191D23" fill-opacity="0.7" stroke="#191D23" stroke-opacity="0.7" stroke-width="0.5"/>
<path d="M3.30109 3.38883C3.08174 3.16949 2.88434 2.98305 2.70886 2.79661C3.64107 1.86441 4.57327 0.921236 5.50547 0C6.42671 0.921236 7.35891 1.86441 8.29112 2.78564C8.11564 2.96112 7.91823 3.14756 7.70986 3.35593C7.13957 2.78564 6.54735 2.18245 5.93319 1.5683V9.40977H5.08872V1.6012C4.48553 2.20439 3.88234 2.80758 3.30109 3.38883Z" fill="#191D23" fill-opacity="0.7" stroke="#191D23" stroke-opacity="0.7" stroke-width="0.5"/>
</g>
<defs>
<clipPath id="clip0_661_938">
<rect width="11" height="14.4985" fill="white"/>
</clipPath>
</defs>
</svg>
