<svg width="41" height="32" viewBox="0 0 41 32" fill="none" xmlns="http://www.w3.org/2000/svg">
<rect x="0.5" y="0.5" width="40" height="31" rx="3.5" fill="white"/>
<path fill-rule="evenodd" clip-rule="evenodd" d="M12.7759 21.1441H10.3281L8.49254 13.0563C8.40541 12.6843 8.22043 12.3554 7.94831 12.2003C7.26923 11.8108 6.52092 11.5007 5.70459 11.3444V11.033H9.64782C10.192 11.033 10.6002 11.5007 10.6682 12.044L11.6206 17.878L14.0672 11.033H16.447L12.7759 21.1441ZM17.8076 21.1441H15.4958L17.3994 11.033H19.7112L17.8076 21.1441ZM22.702 13.8341C22.77 13.2895 23.1782 12.9781 23.6544 12.9781C24.4027 12.8999 25.2178 13.0563 25.8981 13.4445L26.3063 11.2676C25.626 10.9562 24.8777 10.7998 24.1986 10.7998C21.9549 10.7998 20.3222 12.2003 20.3222 14.1441C20.3222 15.6228 21.4787 16.3993 22.295 16.867C23.1782 17.3334 23.5183 17.6448 23.4503 18.1112C23.4503 18.8108 22.77 19.1222 22.0909 19.1222C21.2746 19.1222 20.4583 18.889 19.7112 18.4994L19.303 20.6777C20.1193 21.066 21.0025 21.2223 21.8188 21.2223C24.3347 21.2992 25.8981 19.9 25.8981 17.7998C25.8981 15.1551 22.702 15.0001 22.702 13.8341V13.8341ZM33.9886 21.1441L32.1531 11.033H30.1815C29.7733 11.033 29.3651 11.3444 29.2291 11.8108L25.8301 21.1441H28.2099L28.6849 19.6668H31.6089L31.881 21.1441H33.9886ZM30.5216 13.7559L31.2007 17.5666H29.2971L30.5216 13.7559Z" fill="#172B85"/>
<rect x="0.5" y="0.5" width="40" height="31" rx="3.5" stroke="#F2F4F7"/>
</svg>
