<?xml version="1.0" encoding="utf-8"?>
<!-- Generator: Adobe Illustrator 27.0.0, SVG Export Plug-In . SVG Version: 6.00 Build 0)  -->
<svg version="1.1" id="Layer_1" xmlns="http://www.w3.org/2000/svg" xmlns:xlink="http://www.w3.org/1999/xlink" x="0px" y="0px"
	 viewBox="0 0 20 20" style="enable-background:new 0 0 20 20;" xml:space="preserve">
<style type="text/css">
	.st0{clip-path:url(#SVGID_00000119822470595467053360000015492237504142160294_);}
	.st1{fill:#B3B3B3;}
	.st2{fill-rule:evenodd;clip-rule:evenodd;fill:#B3B3B3;}
</style>
<g>
	<defs>
		<rect id="SVGID_1_" width="20" height="20"/>
	</defs>
	<clipPath id="SVGID_00000024723239650246929770000017380518691142135981_">
		<use xlink:href="#SVGID_1_"  style="overflow:visible;"/>
	</clipPath>
	<g style="clip-path:url(#SVGID_00000024723239650246929770000017380518691142135981_);">
		<path class="st1" d="M0,20l1.4-5.3c-1.2-2.1-1.5-4.5-1-6.9c0.5-2.3,1.8-4.4,3.7-5.9c1.9-1.4,4.3-2.2,6.7-2
			c2.4,0.2,4.6,1.2,6.3,2.8c1.7,1.7,2.7,3.9,2.9,6.3c0.2,2.4-0.5,4.7-1.9,6.7c-1.4,1.9-3.5,3.3-5.8,3.8c-2.3,0.5-4.8,0.2-6.9-1L0,20
			z M5.7,16.6L6,16.8c1.7,1,3.7,1.4,5.6,1c1.9-0.4,3.7-1.4,4.9-3c1.2-1.6,1.8-3.5,1.7-5.5c-0.1-2-1-3.8-2.4-5.2
			c-1.4-1.4-3.3-2.2-5.2-2.3c-2-0.1-3.9,0.5-5.5,1.7c-1.5,1.2-2.6,3-2.9,4.9c-0.3,1.9,0,3.9,1.1,5.6l0.2,0.3l-0.8,3L5.7,16.6z"/>
		<path class="st2" d="M13.8,11.3c-0.2-0.2-0.4-0.3-0.7-0.3c-0.2-0.1-0.5-0.1-0.7,0c-0.4,0.2-0.6,0.7-0.8,1
			c-0.1,0.1-0.1,0.1-0.2,0.1c-0.1,0-0.2,0-0.2,0c-1.3-0.5-2.5-1.5-3.2-2.7C7.8,9.2,7.8,9.1,7.8,9c0-0.1,0.1-0.2,0.1-0.3
			c0.3-0.3,0.5-0.6,0.6-0.9c0-0.4-0.1-0.8-0.3-1.1C8,6.3,7.8,5.7,7.4,5.5C7.2,5.4,7,5.4,6.7,5.4c-0.2,0-0.4,0.1-0.6,0.3
			C5.9,5.9,5.6,6.2,5.5,6.5C5.3,6.9,5.3,7.3,5.3,7.6c0,0.2,0,0.4,0.1,0.6c0.1,0.5,0.3,1,0.6,1.4c0.2,0.3,0.4,0.7,0.6,1
			c0.7,1,1.7,1.9,2.7,2.5c0.5,0.3,1.1,0.6,1.7,0.8c0.6,0.3,1.3,0.4,2,0.3c0.4-0.1,0.8-0.2,1.1-0.4c0.3-0.2,0.6-0.5,0.7-0.9
			c0.1-0.2,0.1-0.4,0.1-0.7C14.8,11.8,14.2,11.5,13.8,11.3z"/>
	</g>
</g>
</svg>
